<?xml version="1.0" encoding="utf-8"?>
<!-- Generator: Adobe Illustrator 24.2.3, SVG Export Plug-In . SVG Version: 6.00 Build 0)  -->
<svg version="1.1" id="Layer_1" xmlns="http://www.w3.org/2000/svg" xmlns:xlink="http://www.w3.org/1999/xlink" x="0px" y="0px"
	 viewBox="0 0 512 512" style="enable-background:new 0 0 512 512;" xml:space="preserve">
<style type="text/css">
	.st0{fill:#FFC61B;}
	.st1{fill:#FEE187;}
</style>
<path class="st0" d="M342.1,126.1l0-91c0-9.1,7.3-16.4,16.4-16.4S374.9,26,374.9,35l0,91c0,9.1-7.3,16.4-16.4,16.4
	S342.1,135.1,342.1,126.1z"/>
<path class="st1" d="M256.8,325.4l106.1-109l117.4,0c14.3,0,21.4,17.2,11.4,27.4L256.8,480.5L21.9,243.8
	c-10.1-10.1-2.9-27.4,11.4-27.4l117.4,0L256.8,325.4z"/>
<g>
	<path class="st0" d="M268.4,492.1l234.9-236.7c6.1-6.1,9.5-14.2,9.5-22.7c0-18-14.6-32.6-32.5-32.6l-117.4,0c-4.4,0-8.7,1.8-11.8,5
		l-94.3,96.9l-85.4-87.7l0-179.1c0-9.1-7.3-16.4-16.4-16.4S138.6,26,138.6,35l0,165l-105.3,0c-17.9,0-32.5,14.6-32.5,32.6
		c0,8.5,3.4,16.6,9.4,22.7l234.9,236.7c3.1,3.1,7.3,4.8,11.6,4.8C261.1,496.9,265.3,495.2,268.4,492.1z M34.1,232.8l109.7,0
		l101.2,104c3.1,3.2,7.3,5,11.8,5c4.4,0,8.7-1.8,11.8-5l101.2-104l109.7,0L256.8,457.2L34.1,232.8z"/>
	<path class="st0" d="M240.4,226.9l0-156.3c0-9.1,7.3-16.4,16.4-16.4c9.1,0,16.4,7.3,16.4,16.4l0,156.3c0,9.1-7.3,16.4-16.4,16.4
		C247.7,243.3,240.4,235.9,240.4,226.9z"/>
</g>
</svg>
